<?xml version="1.0" standalone="no"?>
<!DOCTYPE svg PUBLIC "-//W3C//DTD SVG 20010904//EN"
 "http://www.w3.org/TR/2001/REC-SVG-20010904/DTD/svg10.dtd">
<svg version="1.0" xmlns="http://www.w3.org/2000/svg"
 width="512.000000pt" height="512.000000pt" viewBox="0 0 512.000000 512.000000"
 preserveAspectRatio="xMidYMid meet">
<metadata>
Created by potrace 1.11, written by Peter Selinger 2001-2013
</metadata>
<g transform="translate(0.000000,512.000000) scale(0.100000,-0.100000)"
fill="#000000" stroke="none">
<path d="M1949 5116 c-2 -2 -20 -6 -39 -9 -74 -10 -339 -111 -485 -185 -206
-104 -431 -261 -584 -406 -85 -81 -194 -194 -223 -231 -12 -16 -31 -39 -41
-50 -87 -92 -266 -383 -348 -565 -52 -116 -133 -346 -144 -409 -3 -19 -8 -37
-10 -41 -2 -4 -7 -22 -10 -41 -3 -19 -10 -50 -15 -69 -5 -19 -12 -57 -16 -85
-3 -27 -8 -59 -10 -70 -27 -135 -25 -546 2 -725 25 -167 56 -297 109 -455 170
-508 490 -947 924 -1269 322 -239 743 -416 1118 -472 21 -3 45 -7 53 -9 42
-11 206 -20 375 -20 228 0 321 9 510 47 378 76 743 241 1049 473 123 94 151
118 291 260 257 259 457 576 588 930 64 172 68 189 73 298 9 230 -78 425 -256
568 -82 66 -155 99 -317 144 -218 60 -315 96 -479 175 -185 90 -232 120 -227
145 2 11 6 164 8 340 2 176 4 321 4 323 1 2 19 -12 42 -31 45 -39 153 -99 221
-123 260 -92 588 -42 795 123 71 56 163 169 163 199 0 23 -60 106 -118 162
-99 97 -260 173 -424 199 -83 14 -259 5 -342 -17 -155 -40 -330 -148 -402
-248 l-29 -40 -58 30 c-169 85 -364 157 -546 203 -95 24 -122 30 -191 41 -19
3 -44 7 -55 9 -11 2 -32 4 -48 4 -20 1 -30 8 -39 29 -6 15 -17 41 -24 57 -15
36 -72 228 -79 265 -32 180 -182 380 -350 467 -114 58 -174 74 -301 79 -61 2
-113 2 -115 0z m230 -112 c103 -25 197 -79 277 -160 85 -84 129 -167 169 -319
34 -129 75 -257 88 -272 11 -15 8 -16 -78 -12 -126 4 -365 -5 -420 -16 -11 -2
-42 -7 -70 -10 -231 -26 -555 -128 -797 -251 -156 -80 -156 -100 3 -179 305
-153 615 -241 959 -271 49 -4 379 -4 415 0 17 2 62 7 100 11 39 3 113 15 167
24 l96 18 73 -89 c126 -153 350 -358 512 -467 l49 -33 -7 -52 c-20 -145 -93
-364 -178 -531 -189 -370 -482 -658 -849 -835 -114 -55 -277 -116 -338 -127
-14 -2 -41 -8 -60 -13 -88 -23 -183 -35 -345 -46 -49 -3 -94 -9 -99 -14 -5 -5
-10 -20 -11 -35 -5 -42 27 -55 120 -51 92 5 218 17 225 21 3 2 26 6 50 10 25
3 97 20 160 36 638 167 1147 651 1359 1289 17 52 33 104 35 115 20 98 35 157
39 162 3 3 28 -8 54 -24 103 -62 424 -200 505 -217 76 -17 285 -79 316 -95
198 -103 324 -311 323 -536 0 -110 -94 -378 -208 -595 -49 -95 -204 -338 -235
-372 -7 -7 -37 -42 -67 -78 -93 -112 -285 -295 -403 -383 -227 -170 -477 -302
-723 -381 -178 -58 -184 -59 -358 -91 -43 -8 -110 -17 -150 -21 -39 -3 -88 -8
-107 -10 -49 -5 -329 -5 -338 0 -4 2 -46 7 -93 10 -47 4 -94 8 -105 10 -10 2
-39 7 -64 11 -223 36 -459 114 -680 225 -549 273 -964 718 -1204 1289 -57 133
-117 337 -142 476 -2 17 -9 44 -13 62 -5 17 -7 34 -5 36 3 2 0 26 -5 53 -14
71 -22 191 -22 334 2 571 197 1118 561 1571 70 88 261 282 325 330 17 13 32
26 35 29 22 26 198 147 345 237 48 30 267 133 345 163 208 80 335 97 469 64z
m556 -869 c62 -5 182 -22 285 -41 132 -23 355 -95 524 -169 l109 -48 -49 -25
c-160 -81 -454 -177 -636 -207 -18 -3 -44 -7 -58 -10 -82 -16 -256 -29 -380
-29 -380 0 -716 73 -1062 231 l-80 37 29 15 c176 93 527 202 726 226 23 3 53
7 67 10 14 3 72 8 130 11 58 4 106 8 108 9 4 4 209 -3 287 -10z m1814 1 c124
-28 261 -98 334 -169 76 -76 81 -84 64 -111 -9 -13 -37 -44 -62 -68 -165 -155
-413 -216 -661 -164 -72 15 -170 59 -240 107 -47 32 -144 128 -144 142 0 18
70 95 117 130 142 104 285 147 463 142 58 -2 116 -6 129 -9z m-805 -691 c0
-190 -4 -348 -6 -351 -3 -3 -52 30 -109 73 -134 100 -429 392 -429 423 0 4 28
15 63 25 99 27 274 95 377 146 52 25 97 43 101 38 3 -5 4 -164 3 -354z"/>
</g>
</svg>
